<svg id="Capa_1" enable-background="new 0 0 512 512" height="512" viewBox="0 0 512 512" width="512" xmlns="http://www.w3.org/2000/svg"><g><path d="m235.992 291.006c-24.69-26.995-40.168-60.617-44.732-96.428h-191.26v239h94.668l101.681 52.246-.033-52.246h64.018v-120.477c-8.71-6.547-16.869-13.924-24.342-22.095zm-63.221 5.639h-96v-30h96zm0 35.5v30h-96v-30z"/><path d="m365.917 26.175c-80.551 0-146.083 65.533-146.083 146.083 0 75.836 58.086 138.36 132.104 145.42v60.209l23.136-20.057c15.139-13.125 90.938-78.886 96.409-84.604 26.128-27.307 40.517-63.165 40.517-100.968 0-80.55-65.533-146.083-146.083-146.083zm70.677 164.398-70.677 70.678-70.676-70.678c-18.811-18.811-18.811-49.42 0-68.232 18.811-18.811 49.42-18.811 68.232 0l2.445 2.445 2.444-2.444c18.811-18.81 49.42-18.811 68.232-.001l.001.001c18.809 18.811 18.809 49.42-.001 68.231z"/><path d="m389.574 143.555-23.657 23.657-23.657-23.657c-3.558-3.557-8.23-5.336-12.903-5.336s-9.346 1.779-12.903 5.336c-7.114 7.114-7.114 18.691 0 25.805l49.463 49.464 49.463-49.464c7.114-7.115 7.114-18.691-.001-25.806-7.112-7.113-18.69-7.114-25.805.001z"/></g></svg>