<svg id="Capa_1" enable-background="new 0 0 512.333 512.333" height="512" viewBox="0 0 512.333 512.333" width="512" xmlns="http://www.w3.org/2000/svg"><g><g><g><g><path d="m197.011 397.511c9.475-27.706 1.788-56.14-23.498-86.927-3.592-4.373-33.875-43.717-46.263-59.99-2.693-3.96-6.244-7.125-10.367-9.305l-4.304-85.192c-.005-.092-.011-.183-.019-.274-1.176-13.451-12.243-23.821-25.743-24.121-5.637-.138-11.085 1.544-15.625 4.693-2.206-15.386-14.414-27.483-30.142-29.334-9.772-1.15-19.597 1.935-26.955 8.465-7.359 6.529-11.594 15.916-11.616 25.754-.001.315.019.63.058.943 2.218 17.862 5.068 35.646 7.302 49.144.677 4.087 4.538 6.846 8.626 6.177 4.088-.677 6.853-4.539 6.176-8.626-2.19-13.231-4.976-30.614-7.152-48.04.129-5.475 2.45-10.478 6.563-14.128 4.224-3.746 9.641-5.449 15.245-4.787 9.526 1.121 16.771 8.889 17.228 18.469.011.225 18.133 130.985 18.184 131.159.654 3.99 2.145 7.831 4.444 11.3l31.802 50.503c2.208 3.508 6.843 4.558 10.345 2.351 3.507-2.208 4.559-6.84 2.351-10.345l-31.853-50.583c-.036-.058-.072-.113-.109-.169-2.072-3.103-2.812-6.825-2.084-10.483s2.837-6.813 5.938-8.884c6.404-4.278 15.07-2.582 19.367 3.855.086.129.176.255.27.377 11.435 15.024 42.745 55.737 46.739 60.597 22.015 26.805 28.655 49.857 20.895 72.55-10.492 30.685.926 76.645 8.975 104.673h-88.412c2.604-19.68 8.374-64.881 7.712-74.219-.844-11.897-3.979-21.214-9.587-28.481-6.802-8.816-15.036-15.945-22.999-22.839-3.693-3.197-7.512-6.503-11.03-9.857-21.644-20.637-24.739-47.798-28.016-76.554-.536-4.707-1.091-9.574-1.728-14.398-2.213-16.751-4.917-33.406-7.27-47.489-.683-4.086-4.542-6.854-8.636-6.163-4.086.683-6.845 4.549-6.163 8.636 2.333 13.958 5.011 30.454 7.194 46.981.619 4.691 1.166 9.49 1.696 14.132 3.435 30.147 6.988 61.322 32.569 85.714 3.78 3.604 7.737 7.029 11.563 10.342 7.745 6.705 15.059 13.036 20.942 20.66 3.745 4.854 5.871 11.52 6.499 20.376.523 7.364-5.092 52.762-8.753 79.648-.292 2.146.358 4.314 1.783 5.946 1.424 1.631 3.484 2.568 5.651 2.568h106.999c2.367 0 4.594-1.116 6.01-3.012s1.855-4.349 1.183-6.618c-7.221-24.408-22.244-75.19-11.985-105.195zm-109.799-154.711c-.443.296-.874.605-1.297.922l-5.259-38.058-5.744-45.974c-.459-3.322.557-6.663 2.788-9.166 2.23-2.504 5.447-3.909 8.784-3.822 5.797.129 10.555 4.551 11.119 10.308l4.09 80.947c-5.125.276-10.102 1.918-14.481 4.843z"/><path d="m498.237 115.524c-7.359-6.529-17.181-9.614-26.955-8.464-15.727 1.851-27.937 13.95-30.142 29.336-4.547-3.151-10.005-4.834-15.624-4.696-13.5.301-24.567 10.671-25.743 24.121-.008.092-.014.183-.019.274l-4.306 85.217c-4.037 2.136-7.626 5.252-10.365 9.279-12.382 16.265-42.665 55.61-46.264 59.991-25.286 30.785-32.972 59.219-23.498 86.927 10.26 30.004-4.764 80.787-11.984 105.192-.672 2.269-.233 4.722 1.183 6.618 1.417 1.896 3.644 3.012 6.01 3.012h107c2.167 0 4.227-.937 5.651-2.568 1.425-1.632 2.075-3.8 1.783-5.946-.022-.162-2.232-16.409-4.412-34.232-.006-.051-.013-.102-.021-.153l-.314-2.195c-.587-4.103-4.393-6.95-8.49-6.362-4.102.587-6.95 4.389-6.362 8.489l.304 2.121c1.216 9.936 2.44 19.379 3.292 25.842h-88.418c8.049-28.028 19.467-73.99 8.975-104.673-7.76-22.693-1.119-45.746 20.896-72.549 3.91-4.762 46.921-60.846 47.006-60.974 4.277-6.402 12.964-8.132 19.368-3.855 3.101 2.071 5.211 5.226 5.939 8.884.729 3.658-.012 7.381-2.084 10.482-.037.057-.073.112-.109.17l-31.853 50.583c-2.208 3.506-1.156 8.138 2.351 10.345 3.507 2.208 8.138 1.157 10.345-2.351l31.804-50.505c2.304-3.477 3.796-7.328 4.447-11.327.1-.345 18.167-130.905 18.178-131.129.457-9.581 7.703-17.348 17.229-18.469 5.602-.66 11.02 1.041 15.243 4.787 4.115 3.65 6.435 8.653 6.565 14.128-2.823 22.604-6.699 45.506-10.449 67.659-3.454 20.406-10.982 72.139-11.52 76.848-3.277 28.754-6.373 55.914-28.016 76.551-3.519 3.355-7.339 6.662-11.033 9.86-7.962 6.893-16.196 14.021-22.997 22.836-5.606 7.267-8.741 16.583-9.585 28.482-.101 1.426-.162 4.216.472 11.944.321 3.921 3.602 6.889 7.469 6.889.205 0 .412-.008.62-.025 4.13-.338 7.203-3.96 6.864-8.089-.553-6.751-.505-9.004-.458-9.659.628-8.857 2.754-15.523 6.499-20.377 5.88-7.622 13.194-13.953 20.938-20.656 3.827-3.313 7.785-6.74 11.566-10.345 25.581-24.391 29.133-55.564 32.57-85.71.529-4.643 1.075-9.443 1.696-14.135 2.729-20.668 6.278-41.634 9.709-61.908 3.805-22.479 7.738-45.722 10.607-68.817.039-.313.059-.628.058-.943-.022-9.838-4.257-19.226-11.616-25.755zm-60.828 44.263-5.721 45.8-5.27 38.135c-.423-.317-.854-.625-1.296-.921-4.467-2.985-9.471-4.554-14.483-4.825l4.092-80.967c.564-5.757 5.323-10.179 11.119-10.308 3.34-.091 6.554 1.319 8.784 3.822 2.231 2.504 3.247 5.845 2.775 9.264z"/><path d="m297.801 130.92c5.835-4.239 8.702-11.287 7.482-18.395l-4.004-23.341c-.211-1.235.198-2.493 1.095-3.367l16.958-16.531c5.164-5.033 6.987-12.421 4.758-19.28-2.228-6.858-8.046-11.763-15.183-12.799l-23.435-3.405c-1.24-.18-2.31-.958-2.864-2.082l-10.481-21.235c-3.19-6.467-9.651-10.485-16.863-10.485 0 0 0 0-.001 0-7.211 0-13.673 4.018-16.866 10.484l-10.48 21.236c-.554 1.123-1.625 1.901-2.864 2.082l-23.436 3.405c-7.136 1.036-12.954 5.941-15.182 12.8-2.229 6.858-.405 14.247 4.759 19.28l16.958 16.53c.897.874 1.306 2.133 1.095 3.367l-4.003 23.34c-1.22 7.108 1.647 14.157 7.481 18.395 3.297 2.395 7.153 3.612 11.037 3.612 2.989 0 5.994-.721 8.77-2.18l20.96-11.021c1.11-.582 2.433-.582 3.541 0l20.961 11.021c6.385 3.354 13.972 2.805 19.807-1.431zm-42.538-25.03c-3.006 0-6.011.72-8.752 2.16l-20.961 11.021c-1.886.993-3.43.129-4.006-.289-.574-.418-1.874-1.617-1.512-3.721l4.002-23.341c1.047-6.102-.975-12.326-5.409-16.648l-16.958-16.53c-1.528-1.49-1.182-3.222-.962-3.899.22-.676.958-2.282 3.07-2.589l23.437-3.405c6.126-.891 11.421-4.736 14.161-10.289l10.48-21.236c.945-1.915 2.7-2.121 3.411-2.121h.001c.71 0 2.466.206 3.41 2.12v.001l10.481 21.236c2.74 5.552 8.034 9.398 14.161 10.289l23.436 3.405c2.112.307 2.85 1.913 3.07 2.589s.567 2.41-.962 3.899l-16.958 16.53c-4.434 4.322-6.456 10.546-5.409 16.648l4.003 23.341c.361 2.103-.938 3.302-1.513 3.721-.575.418-2.119 1.282-4.006.289l-20.962-11.021c-2.742-1.44-5.747-2.16-8.753-2.16z"/><path d="m234.323 169.71-19.265-2.799c-.585-.085-1.09-.452-1.352-.982l-8.616-17.459c-2.85-5.775-8.621-9.363-15.063-9.363-6.44 0-12.211 3.588-15.061 9.363l-8.616 17.46c-.262.528-.767.896-1.35.981l-19.267 2.799c-6.374.926-11.569 5.306-13.559 11.431-1.991 6.126-.362 12.723 4.249 17.219l13.943 13.589c.422.412.615 1.005.516 1.586l-3.292 19.189c-1.089 6.347 1.471 12.642 6.682 16.428 5.209 3.784 11.986 4.276 17.689 1.279l17.232-9.06c.522-.273 1.145-.276 1.668 0l17.233 9.06c2.48 1.303 5.162 1.947 7.832 1.947 3.469 0 6.913-1.086 9.857-3.226 5.211-3.786 7.772-10.081 6.682-16.429l-3.291-19.187c-.101-.583.093-1.176.516-1.589l13.941-13.588c4.612-4.495 6.241-11.094 4.25-17.218-1.989-6.125-7.184-10.505-13.558-11.431zm-1.164 17.905-13.94 13.59c-3.96 3.858-5.766 9.416-4.831 14.869l3.291 19.188c.156.908-.302 1.454-.713 1.753-.412.299-1.076.564-1.888.137l-17.234-9.06c-2.447-1.287-5.13-1.929-7.814-1.929s-5.37.643-7.816 1.929l-17.233 9.06c-.812.43-1.476.163-1.888-.137-.411-.299-.869-.845-.714-1.752l3.293-19.19c.934-5.451-.872-11.009-4.831-14.867l-13.942-13.589c-.659-.644-.61-1.355-.453-1.838.156-.483.535-1.087 1.447-1.22l19.269-2.8c5.472-.796 10.2-4.231 12.646-9.189l8.616-17.458c.407-.827 1.099-1 1.607-1 .509 0 1.201.173 1.608 1l8.616 17.458c2.446 4.958 7.174 8.394 12.648 9.19l19.267 2.8c.911.133 1.289.737 1.447 1.22.153.481.202 1.192-.458 1.835z"/><path d="m321.473 241.372c.525-.275 1.149-.275 1.669 0l17.233 9.06c2.48 1.303 5.162 1.947 7.832 1.947 3.468 0 6.913-1.086 9.857-3.226 5.21-3.785 7.771-10.081 6.681-16.428l-3.291-19.19c-.1-.581.094-1.174.516-1.585l13.942-13.589c4.611-4.495 6.241-11.093 4.25-17.218-1.99-6.125-7.186-10.505-13.56-11.432l-19.265-2.799c-.584-.085-1.089-.451-1.351-.982l-8.616-17.459c-2.851-5.775-8.622-9.363-15.062-9.363s-12.211 3.588-15.063 9.363l-8.616 17.46c-.262.529-.767.896-1.349.981l-19.267 2.799c-6.374.926-11.569 5.306-13.559 11.431-1.991 6.126-.363 12.723 4.249 17.219l13.942 13.588c.422.412.615 1.005.516 1.588l-3.292 19.188c-1.088 6.347 1.472 12.643 6.682 16.428 5.211 3.787 11.99 4.276 17.689 1.279zm-26.101-4.357c-.411-.299-.869-.846-.714-1.754l3.291-19.187c.936-5.45-.869-11.009-4.829-14.87l-13.942-13.589c-.659-.644-.611-1.355-.453-1.838.156-.483.535-1.087 1.447-1.22l19.269-2.8c5.472-.796 10.199-4.231 12.645-9.189l8.616-17.458c.407-.826 1.099-1 1.608-1 .508 0 1.199.174 1.608 1l8.616 17.458c2.446 4.958 7.173 8.394 12.647 9.19l19.267 2.8c.911.133 1.29.737 1.448 1.221.157.483.206 1.194-.454 1.836l-13.942 13.591c-3.96 3.86-5.765 9.419-4.829 14.867l3.29 19.188c.156.908-.302 1.455-.713 1.754-.411.298-1.071.565-1.887.136l-17.234-9.06c-2.447-1.287-5.131-1.929-7.815-1.929s-5.369.643-7.816 1.929l-17.233 9.06c-.817.43-1.48.164-1.891-.136z"/></g></g></g></g></svg>