<svg id="Capa_1" enable-background="new 0 0 512 512" height="512" viewBox="0 0 512 512" width="512" xmlns="http://www.w3.org/2000/svg"><g><path d="m184.383 104.485h-116.335c-4.143 0-7.5 3.358-7.5 7.5s3.357 7.5 7.5 7.5h116.335c4.143 0 7.5-3.358 7.5-7.5s-3.358-7.5-7.5-7.5z"/><path d="m184.383 58.989h-116.335c-4.143 0-7.5 3.358-7.5 7.5s3.357 7.5 7.5 7.5h116.335c4.143 0 7.5-3.358 7.5-7.5s-3.358-7.5-7.5-7.5z"/><path d="m88.713 177.397h13.979c.062.051.125.103.19.156l46.42 37.838c1.366 1.146 3.633 3.023 6.656 3.023.831 0 1.72-.142 2.661-.479 4.374-1.568 5.139-5.673 5.506-7.645.051-.274.107-.581.178-.934l6.328-32.211c21.641-1.689 41.777-11.228 56.998-27.066 15.994-16.643 24.802-38.436 24.802-61.365 0-48.918-39.797-88.714-88.713-88.714h-20.892c-4.143 0-7.5 3.358-7.5 7.5s3.357 7.5 7.5 7.5h20.892c40.646 0 73.713 33.067 73.713 73.713 0 39.599-31 71.943-70.537 73.633-2.842.107-8.756.33-10.25 8.179l-5.333 27.152-38.955-31.754c-.302-.246-.55-.455-.76-.632-2.895-2.439-4.682-2.896-8.179-2.896-.046 0-.092 0-.139 0l-14.565.001c-40.646.001-73.713-33.053-73.713-73.683 0-40.646 33.067-73.713 73.713-73.713h19.247c4.143 0 7.5-3.358 7.5-7.5s-3.357-7.5-7.5-7.5h-19.247c-48.916 0-88.713 39.796-88.713 88.713 0 48.901 39.797 88.684 88.713 88.684z"/><path d="m336.862 282.977c1.304-.315 2.346-.59 3.207-.817.518-.137 1.084-.287 1.472-.378.523.188 1.392.542 2.238.888l1.501.609c14.395 5.733 29.566 8.64 45.097 8.64 67.063 0 121.623-54.56 121.623-121.623 0-67.079-54.56-121.652-121.623-121.652-24.739 0-48.549 7.387-68.854 21.363-3.412 2.349-4.274 7.019-1.926 10.431s7.018 4.274 10.43 1.926c17.792-12.246 38.661-18.719 60.35-18.719 58.792-.002 106.623 47.841 106.623 106.649 0 58.792-47.831 106.623-106.623 106.623-13.62 0-26.926-2.549-39.518-7.563l-1.419-.576c-5.738-2.338-7.37-2.662-13.204-1.121-.778.206-1.72.455-2.889.738l-43.932 10.561 10.008-41.613.2-.839c1.352-5.634 1.542-7.857-1.393-12.629-.41-.668-.876-1.425-1.454-2.477-8.521-15.547-13.023-33.218-13.023-51.104 0-24.423 8.012-47.391 23.169-66.42 2.581-3.24 2.047-7.958-1.193-10.54-3.239-2.58-7.959-2.045-10.539 1.194-17.048 21.403-26.437 48.31-26.437 75.766 0 20.398 5.142 40.563 14.875 58.324.714 1.297 1.301 2.261 1.743 2.979-.098.424-.217.92-.334 1.408l-11.854 49.296c-.628 2.623-1.797 7.503 1.793 11.109 1.931 1.939 4.182 2.498 6.282 2.498 1.746 0 3.389-.386 4.656-.684z"/><path d="m333.485 223.347h19.077c5.741 0 10.748-3.173 13.382-7.852h5.035c2.039-.006 4.326-.002 5.126.159.182.169.615.625 1.473 1.78 5.139 6.835 16.462 9.91 22.861 9.91h40.706c9.341 0 16.939-7.599 16.939-16.939v-54.681c0-9.34-7.599-16.939-16.939-16.939h-14.383c2.186-8.735 1.743-16.46-1.33-23.035-3.526-7.543-10.503-13.262-20.153-16.529-.409-.14-.788-.281-1.142-.412-2.275-.843-6.082-2.251-9.995.049-4.262 2.505-5.047 7.585-5.426 10.042-.737 4.835-3.752 13.943-8.087 21.994-5.344 9.925-9.324 12.059-10.096 12.087h-4.599c-2.635-4.663-7.638-7.824-13.373-7.824h-19.077c-8.466 0-15.353 6.874-15.353 15.324v57.515c.002 8.464 6.889 15.351 15.354 15.351zm69.418-108.987c4.427 1.91 7.429 4.506 8.94 7.741 2.098 4.487 1.63 10.709-1.376 18.465-1.736 4.42-.635 7.5.596 9.305 1.217 1.786 3.642 3.914 8.283 3.914h21.799c1.052 0 1.939.888 1.939 1.939v54.681c0 1.069-.87 1.939-1.939 1.939h-40.706c-4.22 0-9.76-2.445-10.846-3.889-5.635-7.583-9.991-7.959-18.473-7.959-.049 0-.1 0-.148 0h-3.059v-42.516h2.62c17.701 0 29.322-30.715 32.37-43.62zm-69.77 36.12c0-.146.163-.324.353-.324h19.077c.189 0 .352.178.352.324v57.515c0 .168-.184.352-.352.352h-19.077c-.168 0-.353-.184-.353-.352z"/><path d="m136.477 239.018c-75.254 0-136.477 61.223-136.477 136.477 0 44.623 21.519 84.312 54.72 109.235.475.452 1.004.846 1.584 1.162 22.525 16.409 50.236 26.108 80.173 26.108 29.978 0 57.723-9.721 80.267-26.166.509-.287.978-.633 1.404-1.027 33.267-24.918 54.834-64.644 54.834-109.313-.001-75.253-61.236-136.476-136.505-136.476zm-69.092 236.356v-5.23c0-18.406 9.917-24.46 26.605-29.501l31.132 18.259c4.084 2.619 7.728 3.929 11.37 3.929 3.643 0 7.285-1.31 11.369-3.928l31.131-18.259c16.67 5.036 26.578 11.081 26.578 29.5v5.24c-19.631 13.62-43.444 21.616-69.093 21.616-25.65 0-49.464-8-69.092-21.626zm21.741-119.183c9.411-2.244 14.312-7.233 17.764-10.754 3.409-3.479 3.764-3.843 7.075-2.99 2.729.705 5.059 1.328 7.082 1.87 7.139 1.909 11.071 2.961 15.43 2.961 4.373 0 8.286-1.047 15.389-2.949 2.032-.544 4.375-1.171 7.114-1.879 3.334-.855 3.688-.492 7.096 2.988 3.448 3.52 8.344 8.509 17.752 10.753v10.346c0 16.9-17.26 38.692-36.207 45.72-8.229 3.048-14.052 3.048-22.255.001-18.967-7.035-36.239-28.827-36.239-45.721v-10.346zm.597-16.039c3.881-30.138 26.016-44.349 46.754-44.748 20.738.399 42.873 14.606 46.754 44.745-2.665-1.354-4.478-3.205-6.438-5.207-4.146-4.234-9.824-10.034-21.555-7.019-2.799.723-5.183 1.361-7.251 1.916-6.065 1.624-9.109 2.438-11.51 2.438-2.387 0-5.45-.819-11.554-2.452-2.059-.551-4.43-1.185-7.213-1.904-11.704-3.013-17.385 2.783-21.532 7.015-1.966 2.007-3.783 3.861-6.455 5.216zm29.202 85.686c.407.161.812.331 1.22.483 5.798 2.153 11.063 3.23 16.334 3.23 5.269 0 10.542-1.076 16.354-3.229.406-.15.807-.319 1.21-.479 1.412 2.84 3.43 5.932 6.422 8.277l-20.328 11.922c-.095.056-.188.113-.281.173-3.303 2.138-3.428 2.137-6.732 0-.092-.06-.186-.117-.28-.172l-20.325-11.921c2.988-2.346 5-5.442 6.406-8.284zm101.261 37.647c-3.299-28.379-27.843-34.931-46.113-39.796-1.188-.316-2.37-.631-3.515-.942-1.323-.365-2.431-2.134-3.305-4.027 18.122-12.491 31.574-33.678 31.574-52.183v-16.781c0-20.897-6.682-38.646-19.324-51.327-11.318-11.353-26.555-17.754-42.902-18.025-.082-.001-.166-.001-.248 0-16.338.271-31.569 6.671-42.891 18.024-12.649 12.685-19.336 30.433-19.336 51.328v16.781c0 18.498 13.459 39.684 31.589 52.177-.866 1.894-1.962 3.666-3.263 4.024-1.153.313-2.317.623-3.488.935-18.299 4.87-42.881 11.427-46.193 39.797-23.255-22.148-37.771-53.398-37.771-87.975 0-66.982 54.494-121.477 121.477-121.477 66.998 0 121.505 54.494 121.505 121.477-.001 34.585-14.526 65.841-37.796 87.99z"/><path d="m416.7 321.407c-25.455 0-49.382 9.917-67.364 27.915-11.284 11.254-19.608 25.283-24.063 40.546-.229.776-.402 1.427-.54 1.969-.118.072-.237.146-.354.217l-33.266 20.369c-1.913 1.179-5.895 3.631-5.873 8.541.021 4.857 3.954 7.232 5.802 8.349l34.377 21.074c.886.54 1.607.958 2.205 1.305.169.098.347.201.511.297.146.338.322.756.485 1.145l.498 1.18c4.794 11.144 11.594 21.163 20.21 29.779 18.57 18.57 42.968 27.855 67.37 27.855s48.811-9.286 67.397-27.857c37.138-37.169 37.137-97.623-.002-134.762-18.005-18.006-41.94-27.922-67.393-27.922zm56.789 152.077c-31.322 31.295-82.26 31.295-113.555.002-7.266-7.266-12.998-15.711-17.023-25.069l-.462-1.094c-1.938-4.611-2.907-6.059-7.297-8.606-.524-.304-1.157-.671-1.914-1.131l-27.231-16.694 26.202-16.044c3.999-2.448 5.743-3.917 6.9-8.663.127-.521.288-1.187.555-2.091 3.757-12.867 10.764-24.677 20.273-34.161 15.158-15.171 35.316-23.526 56.763-23.526s41.614 8.356 56.786 23.528c31.293 31.294 31.292 82.233.003 113.549z"/><path d="m416.498 382.965c-12.507-10.719-30.9-10.589-41.633.526-12.775 13.212-12.778 34.735-.007 47.979.062.064.125.127.188.189l36.228 34.979c1.454 1.403 3.331 2.104 5.21 2.104 1.877 0 3.755-.701 5.208-2.103l36.255-34.979c.064-.063.128-.126.19-.191 12.771-13.244 12.769-34.767-.003-47.975-10.737-11.122-29.138-11.251-41.636-.529zm30.928 38.003-30.939 29.851-30.916-29.851c-7.142-7.502-7.116-19.61.082-27.055 6.045-6.261 15.964-4.369 21.693.986l.356.332c6.576 6.141 11.016 6.141 17.592 0l.364-.339c5.721-5.347 15.638-7.242 21.689-.975 7.195 7.441 7.22 19.549.079 27.051z"/></g></svg>