<?xml version="1.0" encoding="utf-8"?>
<!-- Generator: Adobe Illustrator 16.0.4, SVG Export Plug-In . SVG Version: 6.00 Build 0)  -->
<!DOCTYPE svg PUBLIC "-//W3C//DTD SVG 1.0//EN" "http://www.w3.org/TR/2001/REC-SVG-20010904/DTD/svg10.dtd">
<svg version="1.0" id="Ebene_1" xmlns="http://www.w3.org/2000/svg" xmlns:xlink="http://www.w3.org/1999/xlink" x="0px" y="0px"
	 width="90.008px" height="741.35px" viewBox="0 0 90.008 741.35" enable-background="new 0 0 90.008 741.35" xml:space="preserve">
<g>
	<g>
		<g>
			<defs>
				<rect id="SVGID_1_" x="17.693" y="10.761" width="51.871" height="718.624"/>
			</defs>
			<clipPath id="SVGID_2_">
				<use xlink:href="#SVGID_1_"  overflow="visible"/>
			</clipPath>
			<path clip-path="url(#SVGID_2_)" d="M63.331,12.492c0.601,0.691,1.062,1.513,1.386,2.459c0.323,0.945,0.484,1.928,0.484,2.943
				c0,2.029-0.563,3.588-1.696,4.674c-1.132,1.084-2.781,1.626-4.951,1.626H36.807V13.115h-4.153v11.079h-7.965v4.918h7.963v6.51
				h4.153v-6.51h22.022c3.371,0,5.979-0.923,7.826-2.771c1.847-1.847,2.771-4.479,2.771-7.896c0-1.479-0.221-2.896-0.658-4.259
				c-0.439-1.362-1.072-2.505-1.904-3.429L63.331,12.492z M32.375,64.499c0,3.14,0.613,5.896,1.836,8.273
				c1.223,2.38,2.943,4.236,5.16,5.575h-6.719v4.708h36.426v-4.915H49.965c-4.106,0-7.33-1.144-9.661-3.429
				c-2.329-2.285-3.497-5.393-3.497-9.314c0-3.509,0.995-6.208,2.979-8.104c1.984-1.895,4.871-2.839,8.656-2.839H69.08v-4.917
				H47.958c-5.078,0-8.945,1.351-11.6,4.051C33.701,56.292,32.375,59.928,32.375,64.499 M36.599,116.99
				c0-3.554,1.119-6.521,3.359-8.897s5.156-3.728,8.759-4.051v25.829c-3.603-0.321-6.519-1.674-8.759-4.052
				C37.718,123.444,36.599,120.499,36.599,116.99 M50.865,99.331c-3.603,0-6.797,0.762-9.592,2.283
				c-2.793,1.525-4.975,3.627-6.543,6.304c-1.57,2.681-2.355,5.703-2.355,9.071c0,3.371,0.785,6.406,2.355,9.104
				c1.568,2.702,3.762,4.828,6.577,6.371c2.816,1.55,6.003,2.321,9.558,2.321c3.558,0,6.74-0.808,9.559-2.425
				c2.814-1.613,5.021-3.865,6.611-6.753c1.594-2.885,2.392-6.197,2.392-9.938c0-2.908-0.509-5.575-1.524-7.998
				c-1.015-2.423-2.492-4.441-4.433-6.062l-3.185,2.771c1.568,1.386,2.76,3.025,3.563,4.917c0.81,1.896,1.214,3.973,1.214,6.232
				c0,4.018-1.166,7.342-3.498,9.974c-2.33,2.631-5.392,4.086-9.177,4.36V99.394L50.865,99.331z M32.375,165.536
				c0,3.23,0.684,6.104,2.043,8.62c1.361,2.518,3.244,4.444,5.646,5.782c-2.537,1.107-4.455,2.783-5.748,5.021
				c-1.291,2.239-1.939,4.884-1.939,7.932c0,3.001,0.602,5.653,1.801,7.964c1.202,2.312,2.91,4.109,5.126,5.401h-6.647v4.709h36.427
				v-4.916H49.969c-4.106,0-7.33-1.099-9.661-3.292c-2.328-2.191-3.496-5.156-3.496-8.897c0-3.37,0.994-5.966,2.979-7.79
				c1.984-1.822,4.871-2.733,8.656-2.733h20.637v-4.918H49.968c-4.107,0-7.33-1.084-9.661-3.255
				c-2.327-2.17-3.497-5.146-3.497-8.934c0-3.324,0.995-5.897,2.979-7.725c1.985-1.822,4.872-2.733,8.655-2.733h20.638v-4.917
				H47.961c-5.125,0-9.003,1.305-11.636,3.913C33.689,157.375,32.375,160.966,32.375,165.536 M24.689,233.334
				c0-1.018-0.349-1.871-1.041-2.563c-0.69-0.69-1.548-1.037-2.562-1.037c-0.925,0-1.722,0.347-2.39,1.037
				c-0.668,0.692-1.004,1.548-1.004,2.563s0.347,1.866,1.037,2.562c0.692,0.692,1.502,1.038,2.426,1.038
				c0.969,0,1.801-0.346,2.492-1.038C24.341,235.201,24.689,234.35,24.689,233.334 M69.078,235.826v-4.917H32.652v4.917H69.078z
				 M63.331,252.724c0.601,0.69,1.062,1.513,1.386,2.459c0.323,0.945,0.484,1.928,0.484,2.94c0,2.033-0.563,3.591-1.696,4.673
				c-1.132,1.089-2.781,1.629-4.951,1.629H36.807v-11.079h-4.153v11.079h-7.965v4.918h7.963v6.51h4.153v-6.51h22.022
				c3.371,0,5.979-0.923,7.826-2.771c1.847-1.845,2.771-4.477,2.771-7.895c0-1.477-0.221-2.896-0.658-4.26
				c-0.439-1.358-1.072-2.503-1.904-3.428L63.331,252.724z M39.785,300.505h-7.133v4.709h36.426v-4.917h-18.56
				c-4.245,0-7.549-1.085-9.903-3.255c-2.354-2.17-3.529-5.171-3.529-9.002l0.068-1.178h-4.779c0,3.369,0.624,6.197,1.869,8.481
				C35.492,297.631,37.338,299.351,39.785,300.505 M65.062,339.98c0,2.586-0.59,4.904-1.767,6.96
				c-1.179,2.054-2.851,3.67-5.021,4.849c-2.17,1.176-4.643,1.766-7.41,1.766c-2.771,0-5.239-0.59-7.41-1.766
				c-2.17-1.179-3.844-2.795-5.021-4.849c-1.177-2.056-1.766-4.374-1.766-6.96c0-2.584,0.589-4.905,1.766-6.961
				c1.18-2.055,2.854-3.657,5.021-4.812c2.171-1.152,4.641-1.729,7.41-1.729c2.769,0,5.24,0.577,7.41,1.729
				c2.17,1.154,3.844,2.759,5.021,4.812C64.473,335.074,65.062,337.396,65.062,339.98 M69.425,339.98
				c0-3.51-0.798-6.671-2.391-9.488c-1.594-2.814-3.797-5.02-6.612-6.612s-6.001-2.39-9.558-2.39s-6.74,0.796-9.559,2.39
				c-2.814,1.595-5.009,3.798-6.578,6.612c-1.57,2.817-2.354,5.979-2.354,9.488c0,3.509,0.784,6.672,2.354,9.486
				c1.569,2.815,3.764,5.032,6.578,6.648c2.816,1.615,6.002,2.424,9.559,2.424s6.74-0.809,9.558-2.424
				c2.815-1.616,5.021-3.833,6.612-6.648C68.628,346.652,69.425,343.489,69.425,339.98 M69.425,385.199
				c0-4.708-0.938-8.39-2.807-11.046c-1.868-2.653-4.396-3.98-7.582-3.98c-2.354,0-4.2,0.624-5.539,1.868
				c-1.34,1.248-2.286,2.749-2.84,4.503c-0.558,1.757-1.108,4.086-1.662,6.993c-0.416,2.354-0.82,4.203-1.213,5.54
				c-0.394,1.343-1.004,2.459-1.836,3.359s-1.938,1.35-3.322,1.35c-1.803,0-3.256-0.797-4.364-2.39
				c-1.106-1.592-1.661-3.957-1.661-7.099c0-4.154,1.038-7.73,3.115-10.732l-3.946-2.146c-1.015,1.521-1.836,3.462-2.459,5.814
				c-0.622,2.354-0.936,4.709-0.936,7.062c0,4.525,0.971,8.059,2.909,10.597c1.938,2.545,4.432,3.813,7.479,3.813
				c2.449,0,4.364-0.634,5.75-1.903c1.385-1.272,2.364-2.81,2.941-4.608c0.578-1.802,1.144-4.178,1.697-7.133
				c0.368-2.216,0.75-3.992,1.143-5.334c0.395-1.336,0.97-2.444,1.73-3.323c0.762-0.876,1.812-1.313,3.149-1.313
				c1.896,0,3.358,0.796,4.397,2.389c1.039,1.592,1.558,4.052,1.558,7.376c0,2.492-0.379,4.895-1.144,7.201
				c-0.762,2.31-1.74,4.227-2.941,5.752l3.879,2.217c1.291-1.523,2.365-3.639,3.219-6.341C69,390.983,69.425,388.156,69.425,385.199
				 M60.908,411.936c1.016,1.294,1.521,2.908,1.521,4.848c0,1.661-0.474,2.935-1.419,3.811c-0.943,0.879-2.318,1.314-4.121,1.314
				H39.299v-9.903h-6.927v9.903h-8.447v8.655h8.448v6.094h6.926v-6.094h17.798c4.062,0,7.157-1.108,9.279-3.323
				c2.123-2.216,3.188-5.354,3.188-9.419c0-1.614-0.209-3.15-0.623-4.604c-0.416-1.454-1.041-2.688-1.869-3.706L60.908,411.936z
				 M69.078,454.11v-10.526l-21.467,16.898l-15.514-15.443v10.389l16.62,17.937H17.693v8.656h51.385v-8.656h-9.764l-6.096-6.438
				L69.078,454.11z M32.098,508.264h18.698c3.604,0,6.361,0.913,8.275,2.734c1.916,1.823,2.873,4.282,2.873,7.375
				c0,2.771-0.818,4.905-2.457,6.406c-1.642,1.5-4.121,2.251-7.444,2.251H32.098v8.656H53.22c5.4,0,9.477-1.42,12.225-4.259
				c2.746-2.842,4.121-6.729,4.121-11.669c0-2.401-0.451-4.642-1.353-6.721c-0.897-2.077-2.183-3.808-3.845-5.19h4.709v-8.242
				H32.098V508.264L32.098,508.264z M62.154,572.528c0,2.078-0.475,3.948-1.42,5.609s-2.295,2.979-4.053,3.945
				c-1.754,0.972-3.783,1.455-6.095,1.455c-2.31,0-4.338-0.483-6.095-1.455c-1.754-0.969-3.104-2.284-4.051-3.945
				c-0.945-1.661-1.42-3.531-1.42-5.609c0-2.077,0.475-3.947,1.42-5.608c0.944-1.66,2.297-2.979,4.051-3.945
				c1.757-0.973,3.785-1.455,6.095-1.455c2.312,0,4.341,0.482,6.095,1.455c1.758,0.969,3.105,2.284,4.053,3.945
				C61.68,568.581,62.154,570.451,62.154,572.528 M17.693,561.656h18.977c-1.663,1.433-2.91,3.164-3.74,5.194
				c-0.831,2.03-1.247,4.271-1.247,6.717c0,3.557,0.786,6.752,2.354,9.592c1.57,2.839,3.785,5.068,6.648,6.682
				c2.862,1.618,6.161,2.427,9.901,2.427c3.739,0,7.054-0.809,9.938-2.427c2.885-1.611,5.112-3.843,6.683-6.682
				c1.569-2.84,2.354-6.035,2.354-9.592c0-2.538-0.438-4.857-1.316-6.96c-0.875-2.101-2.19-3.865-3.947-5.298h4.777v-8.312H17.693
				V561.656z M62.154,623.497c0,3.188-1.062,5.808-3.187,7.86c-2.125,2.055-4.918,3.081-8.381,3.081
				c-3.462,0-6.256-1.026-8.379-3.081c-2.122-2.055-3.187-4.675-3.187-7.86c0-3.185,1.062-5.815,3.187-7.895
				s4.917-3.116,8.379-3.116c3.463,0,6.256,1.038,8.381,3.116C61.09,617.681,62.154,620.313,62.154,623.497 M69.564,623.497
				c0-3.786-0.809-7.179-2.426-10.18c-1.613-3.001-3.865-5.345-6.753-7.029c-2.884-1.685-6.149-2.525-9.799-2.525
				c-3.646,0-6.897,0.843-9.765,2.525c-2.862,1.687-5.104,4.028-6.717,7.029c-1.615,3.001-2.425,6.394-2.425,10.18
				c0,3.74,0.81,7.11,2.425,10.111c1.614,3,3.854,5.343,6.717,7.028c2.865,1.685,6.119,2.526,9.765,2.526
				c3.647,0,6.915-0.844,9.799-2.526c2.888-1.688,5.14-4.028,6.753-7.028C68.757,630.609,69.564,627.238,69.564,623.497
				 M37.5,666.503h-5.402v8.24h36.979v-8.656H51.143c-3.694,0-6.522-0.943-8.485-2.839c-1.961-1.893-2.942-4.522-2.942-7.896
				c0-0.601,0.069-1.271,0.208-2.008h-8.24C31.682,659.623,33.621,664.011,37.5,666.503 M47.472,709.855v10.524H28.219v-10.524
				c0-3.924,0.831-6.9,2.494-8.935c1.661-2.03,4.041-3.047,7.132-3.047c3.094,0,5.473,1.017,7.135,3.047
				C46.641,702.954,47.472,705.931,47.472,709.855 M20.603,709.44v19.944h48.475v-9.005H55.089V709.44
				c0-4.199-0.689-7.86-2.077-10.979c-1.384-3.114-3.382-5.505-5.989-7.167c-2.605-1.661-5.666-2.492-9.177-2.492
				c-3.555,0-6.624,0.831-9.21,2.492c-2.585,1.662-4.568,4.053-5.956,7.167C21.294,701.579,20.603,705.24,20.603,709.44"/>
		</g>
	</g>
</g>
</svg>
